<?xml version="1.0" encoding="UTF-8"?>
<svg width="16px" height="16px" viewBox="0 0 16 16" version="1.1" xmlns="http://www.w3.org/2000/svg" xmlns:xlink="http://www.w3.org/1999/xlink">
    <title>CCC1BB6F-93D6-450B-879B-1005CAB3B297</title>
    <g id="Page-1" stroke="none" stroke-width="1" fill="none" fill-rule="evenodd">
        <g id="Split---Registration" transform="translate(-57.000000, -521.000000)">
            <g id="Registration" transform="translate(24.000000, 326.000000)">
                <g id="last-name" transform="translate(32.000000, 171.000000)">
                    <g id="icon/service-icons/calendar" transform="translate(1.000000, 24.000000)">
                        <rect id="Rectangle" x="0" y="0" width="16" height="16"></rect>
                        <path d="M10.9406,1.84575 L10.9412,2.3455 C12.7777,2.48942 13.9908,3.7408 13.9927,5.65984 L13.9999956,11.277 C14.0026,13.3693 12.6882,14.6567 10.5812,14.66 L5.43459,14.6667038 C3.3408,14.6693 2.00988,13.3513 2.00724,11.253 L1.99999558,5.70182 C1.99737,3.77012 3.16768,2.52208 5.00411,2.35349 L5.00346,1.85374 C5.0028,1.56056 5.22001,1.34 5.50963,1.34 C5.79924,1.33933 6.01645,1.55922 6.01711,1.85241 L6.01777,2.31884 L9.92759,2.31351 L9.92693,1.84708 C9.92627,1.55389 10.1435,1.334 10.4331,1.33333847 C10.7161,1.33267 10.9399,1.55256 10.9406,1.84575 Z M3.01431,5.90771 L12.9797,5.89438 L12.9797,5.66117 C12.9514,4.22855 12.2327,3.47693 10.9426,3.36499 L10.9432,3.87806 C10.9432,4.16458 10.7201,4.3918 10.437,4.3918 C10.1474,4.39247 9.92956,4.16592 9.92956,3.87939 L9.9289,3.33966 L6.01908,3.345 L6.01974,3.88406 C6.01974,4.17125 5.80318,4.3978 5.51357,4.3978 C5.22395,4.39847 5.00608,4.17258 5.00608,3.88539 L5.00542,3.37232 C3.7219,3.50092 3.01168,4.25521 3.01364591,5.70048 L3.01431,5.90771 Z M10.1598989,8.9362 L10.1598989,8.94353 C10.1665,9.25004 10.4166,9.48259 10.7201,9.47593 C11.0163,9.4686 11.2526,9.21472 11.246,8.90821 C11.2322,8.61502 10.9945,8.37581 10.699,8.3764786 C10.3962,8.38314 10.1593,8.62968 10.1598989,8.9362 Z M10.7036,11.928 C10.4009,11.9214 10.1567,11.6688 10.156,11.3623 C10.1494,11.0558 10.3923,10.8019 10.6951,10.7946 L10.7017,10.7946 C11.011,10.7946 11.2618015,11.0471 11.2618015,11.3603 C11.2625,11.6735 11.0123,11.9274 10.7036,11.928 Z M7.44807862,8.94686 C7.46124,9.25337 7.71202,9.49258 8.01481,9.47926 C8.311,9.46526 8.5473,9.21206 8.53414,8.90554 C8.5269,8.60569 8.28336,8.37248 7.98716,8.3731386 C7.68438,8.38647 7.44742,8.64034 7.44807862,8.94686 Z M8.01741,11.898 C7.71463,11.9114 7.46451,11.6722 7.45069,11.3656 C7.45069,11.0591 7.68699,10.8059 7.98977,10.7918988 C8.28597,10.7913 8.53017,11.0245 8.53675,11.3237 C8.55057,11.6308 8.31361,11.8841 8.01741,11.898 Z M4.73619866,8.97018 C4.74937,9.27669 5.00015,9.51657 5.30293,9.50258 C5.59913,9.48925 5.83543,9.23538 5.82161,8.92887 C5.81502,8.62902 5.57148,8.3958 5.27463,8.39646856 C4.97185,8.40979 4.73555,8.66367 4.73619866,8.97018 Z M5.30558,11.9014 C5.0028,11.9154 4.75267,11.6755 4.73884862,11.369 C4.73819,11.0625 4.97515,10.8086 5.27793,10.7952984 C5.57413,10.7946 5.81833,11.0278 5.82491,11.3277 C5.83873,11.6342 5.60243,11.888 5.30558,11.9014 Z" id="Shape" fill="#4D2C3E"></path>
                    </g>
                </g>
            </g>
        </g>
    </g>
</svg>