<?xml version="1.0" encoding="UTF-8"?>
<svg width="24px" height="24px" viewBox="0 0 24 24" version="1.1" xmlns="http://www.w3.org/2000/svg" xmlns:xlink="http://www.w3.org/1999/xlink">
    <title>D9227938-2AAF-486E-802A-C7940525D0AE</title>
    <g id="Page-1" stroke="none" stroke-width="1" fill="none" fill-rule="evenodd">
        <g id="Split---Registration-2" transform="translate(-176.000000, -565.000000)">
            <g id="Registration" transform="translate(24.000000, 323.000000)">
                <g id="Upload-ID" transform="translate(32.000000, 202.000000)">
                    <g id="icon/service-icons/camera" transform="translate(120.000000, 40.000000)">
                        <rect id="Rectangle" x="0" y="0" width="24" height="24"></rect>
                        <g id="Camera" transform="translate(2.000000, 2.000000)">
                            <path d="M15.6378,4.1099 L15.6378,4.1099 C15.2648,4.1099 14.9268,3.8949 14.7678,3.5589 C14.4808,2.9509 14.1158,2.1739 13.8998,1.7509 C13.5808,1.1219 13.0638,0.7559 12.3478,0.7509 C12.3358,0.7499 7.66382,0.7499 7.65182,0.7509 C6.93582,0.7559 6.41982,1.1219 6.09982,1.7509 C5.88482,2.1739 5.51982,2.9509 5.23282,3.5589 C5.07382,3.8949 4.73482,4.1099 4.36282,4.1099 L4.36282,4.1099 C2.36682,4.1099 0.74982,5.7269 0.74982,7.7219 L0.74982,13.6579 C0.74982,15.6519 2.36682,17.2699 4.36282,17.2699 L15.6378,17.2699 C17.6328,17.2699 19.2498,15.6519 19.2498,13.6579 L19.2498,7.7219 C19.2498,5.7269 17.6328,4.1099 15.6378,4.1099 Z" id="Path" stroke="#E1D7DC" stroke-width="1.5" stroke-linecap="round" stroke-linejoin="round"></path>
                            <path d="M6.82139,10.3345 C6.82039,12.0875 8.2514,13.5215 10.0014,13.5205005 C11.7484,13.5185 13.1754,12.0905 13.1784047,10.3415 C13.1814,8.5855 11.7554,7.1545 10.0034,7.15249794 C8.2414,7.1505 6.80739,8.6055 6.82139,10.3345 Z" id="Path" stroke="#E1D7DC" stroke-width="1.5" stroke-linecap="round" stroke-linejoin="round"></path>
                            <path d="M14.9025,7.9951 C14.8059,7.9852 14.7105,7.96 14.6036,7.9169 C14.4847,7.8641 14.3818,7.7969 14.2823,7.6959 C14.1035,7.5057 14,7.257 14,7.0005 C14,6.86422 14.0279,6.72916 14.0823,6.60681 C14.1368,6.48285 14.2014,6.37829 14.3182,6.26456 C14.407,6.18719 14.498,6.12493 14.6224,6.07013 C14.9913,5.92396 15.4301,6.0113 15.7043,6.28541 C15.7865,6.36639 15.8557,6.46411 15.8941,6.54651 L15.9169,6.60494 C15.9721,6.72916 16,6.86422 16,7.0005 C16,7.2622 15.8978,7.5043 15.7081,7.7058 C15.5442,7.8708 15.3289,7.9723 15.0992,7.9951 L15,8.00000167 L14.9025,7.9951 Z" id="Path" fill="#FCE5E5" fill-rule="nonzero"></path>
                        </g>
                    </g>
                </g>
            </g>
        </g>
    </g>
</svg>