<?xml version="1.0" encoding="UTF-8"?>
<svg width="16px" height="16px" viewBox="0 0 16 16" version="1.1" xmlns="http://www.w3.org/2000/svg" xmlns:xlink="http://www.w3.org/1999/xlink">
    <title>2C2F1218-E2E5-49E3-B614-36214A141F81</title>
    <g id="Page-1" stroke="none" stroke-width="1" fill="none" fill-rule="evenodd">
        <g id="Split---Registration-1" transform="translate(-57.000000, -382.000000)">
            <g id="Registration" transform="translate(24.000000, 325.000000)">
                <g id="last-name" transform="translate(32.000000, 33.000000)">
                    <g id="icon/service-icons/message" transform="translate(1.000000, 24.000000)">
                        <rect id="Rectangle" x="0" y="0" width="16" height="16"></rect>
                        <path d="M11.4573,2 C12.396,2 13.299,2.38277778 13.9633,3.06961111 C14.6283,3.755 15,4.67944444 15,5.64722222 L15,11.3527778 C15,13.3677778 13.411,15 11.4573,15 L4.542,15 C2.5883,15 1,13.3677778 1,11.3527778 L1,5.64722222 C1,3.63222222 2.5813,2 4.542,2 L11.4573,2 Z M12.571,6.72333333 L12.627,6.66555556 C12.7943,6.45611111 12.7943,6.15277778 12.6193,5.94333333 C12.522,5.83572222 12.3883,5.77 12.249,5.75555556 C12.102,5.74761111 11.962,5.79888889 11.8563,5.9 L8.7,8.5 C8.294,8.84738889 7.7123,8.84738889 7.3,8.5 L4.15,5.9 C3.9323,5.73388889 3.6313,5.75555556 3.45,5.95055556 C3.261,6.14555556 3.24,6.45611111 3.4003,6.67277778 L3.492,6.76666667 L6.677,9.33055556 C7.069,9.64833333 7.5443,9.82166667 8.042,9.82166667 C8.5383,9.82166667 9.022,9.64833333 9.4133,9.33055556 L12.571,6.72333333 Z" id="Shape" fill="#4D2C3E"></path>
                    </g>
                </g>
            </g>
        </g>
    </g>
</svg>