<?xml version="1.0" encoding="UTF-8"?>
<svg width="16px" height="16px" viewBox="0 0 16 16" version="1.1" xmlns="http://www.w3.org/2000/svg" xmlns:xlink="http://www.w3.org/1999/xlink">
    <title>603D6789-CFD9-4D2B-9AD9-88E94DE62B68</title>
    <g id="Page-1" stroke="none" stroke-width="1" fill="none" fill-rule="evenodd">
        <g id="Split---Registration" transform="translate(-57.000000, -590.000000)">
            <g id="Registration" transform="translate(24.000000, 326.000000)">
                <g id="last-name" transform="translate(32.000000, 240.000000)">
                    <g id="icon/service-icons/phone" transform="translate(1.000000, 24.000000)">
                        <rect id="Rectangle" x="0" y="0" width="16" height="16"></rect>
                        <path d="M9.5706,1.33861 C9.42188,1.3173 9.2725,1.36127 9.15365,1.45587 C9.03149,1.5518 8.95514,1.69037 8.93854,1.8456 C8.90335,2.15938 9.12975,2.44319 9.44313,2.4785 C11.6042,2.71967 13.284,4.40318 13.527,6.57102 C13.5595,6.86149 13.8032,7.08067 14.094,7.08067 C14.1159,7.08067 14.1371,7.07934 14.1591,7.07667 C14.3111,7.06002 14.4465,6.98474 14.5421,6.86482 C14.6371,6.7449 14.6802,6.59567 14.663,6.44311 C14.3602,3.7383 12.2668,1.63908 9.5706,1.33861 Z M9.61208,3.65995 C9.29472,3.60133 9.00326,3.80385 8.94284,4.11364 C8.88242,4.42343 9.08558,4.72589 9.39431,4.78651 C10.3238,4.96772 11.0415,5.68723 11.2235,6.61992 L11.2235,6.62059 C11.2752,6.88907 11.5116,7.08427 11.7838,7.08427 C11.8203,7.08427 11.8568,7.08094 11.894,7.07427 C12.2028,7.01232 12.4059,6.71052 12.3455,6.40007 C12.074,5.00703 11.0017,3.9311 9.61208,3.65995 Z M10.6667,10.0604 C10.9677,9.88682 11.3077,9.69081 11.7365,9.78202 C12.1249,9.86396 13.4488,10.9386 13.8113,11.311 C14.049,11.5548 14.1811,11.8066 14.2017,12.0585 C14.2375,13.0464 12.8951,14.1743 12.6507,14.3149 C12.3261,14.5487 11.9483,14.6667 11.524,14.6667 C11.0905,14.6667 10.6071,14.5434 10.08,14.2976 C7.21975,13.1037 2.85039,8.82068 1.69515,5.98263 C1.21579,4.92602 1.21247,4.05462 1.68718,3.39973 C1.8764,3.09261 2.9553,1.80883 3.92132,1.84947 C4.17826,1.87145 4.4279,2.00336 4.67289,2.2432 C5.04337,2.60628 6.09106,3.93403 6.17206,4.32377 C6.26169,4.7568 6.06516,5.10123 5.89055,5.40369 C5.8533,5.46871 5.80312,5.54587 5.74815,5.6304 C5.53951,5.95122 5.2618,6.37823 5.36007,6.65084 C6.0645,8.38031 7.6918,9.88928 9.42202,10.5981 C9.68959,10.6954 10.1164,10.4157 10.4361,10.2061 C10.5195,10.1515 10.5955,10.1017 10.6596,10.0645 L10.6667,10.0604 Z" id="Shape" fill="#4D2C3E"></path>
                    </g>
                </g>
            </g>
        </g>
    </g>
</svg>