<?xml version="1.0" encoding="UTF-8"?>
<svg width="16px" height="16px" viewBox="0 0 16 16" version="1.1" xmlns="http://www.w3.org/2000/svg" xmlns:xlink="http://www.w3.org/1999/xlink">
    <title>C0B8B155-7D5A-4F14-8B93-8E0B6208D845</title>
    <g id="Page-1" stroke="none" stroke-width="1" fill="none" fill-rule="evenodd">
        <g id="Split---Registration-3" transform="translate(-57.000000, -382.000000)">
            <g id="Registration" transform="translate(24.000000, 325.000000)">
                <g id="Upload-ID" transform="translate(32.000000, 33.000000)">
                    <g id="icon/service-icons/real-img" transform="translate(1.000000, 24.000000)">
                        <rect id="Rectangle" x="0" y="0" width="16" height="16"></rect>
                        <g id="Image" transform="translate(1.000000, 1.000000)" fill="#4D2C3E">
                            <path d="M3.966326,14 L10.03296,14 C12.40617,14 14,12.33533 14,9.85831 L14,4.141704 C14,1.664677 12.40617,0 10.03366,0 L3.966326,0 C1.59383,0 0,1.664677 0,4.141704 L0,9.85831 C0,12.33533 1.59383,14 3.966326,14 Z M4.549202,6.3 C3.584147,6.3 2.8,5.514789 2.8,4.55 C2.8,3.585211 3.584147,2.8 4.549202,2.8 C5.51355,2.8 6.29839,3.585211 6.29839,4.55 C6.29839,5.514789 5.51355,6.3 4.549202,6.3 Z M12.47456,9.0538 C12.70899,9.65482 12.58719,10.37722 12.33659,10.97243 C12.03958,11.68041 11.47083,12.2164 10.75424,12.45048 C10.43609,12.5545 10.1024,12.6 9.76948,12.6 L3.870048,12.6 C3.282993,12.6 2.763516,12.45916 2.33765,12.19687 C2.070873,12.03223 2.023714,11.6522 2.221506,11.40587 C2.55234,10.99413 2.878953,10.58092 3.20838,10.16407 C3.836266,9.36656 4.259311,9.13542 4.729515,9.33842 C4.920272,9.42221 5.111736,9.54786 5.308828,9.68079 C5.83394,10.03765 6.5639,10.52814 7.52542,9.99579 C8.18342,9.62724 8.56506,8.99507 8.89742,8.44459 L8.90295,8.43542 C8.92654,8.39678 8.94985,8.35814 8.97309,8.31964 C9.08481,8.13484 9.19499,7.95249 9.31966,7.78449 C9.47597,7.57428 10.05522,6.91691 10.80562,7.38507 C11.28358,7.67977 11.68552,8.07856 12.1156,8.50549 C12.27961,8.66873 12.39644,8.85437 12.47456,9.0538 Z" id="Shape"></path>
                        </g>
                    </g>
                </g>
            </g>
        </g>
    </g>
</svg>