<?xml version="1.0" encoding="UTF-8"?>
<svg width="16px" height="16px" viewBox="0 0 16 16" version="1.1" xmlns="http://www.w3.org/2000/svg" xmlns:xlink="http://www.w3.org/1999/xlink">
    <title>3F0229F3-B0A7-4F52-B681-13988DCED3E1</title>
    <g id="Page-1" stroke="none" stroke-width="1" fill="none" fill-rule="evenodd">
        <g id="Split---Registration-1" transform="translate(-57.000000, -451.000000)">
            <g id="Registration" transform="translate(24.000000, 325.000000)">
                <g id="last-name" transform="translate(32.000000, 102.000000)">
                    <g id="icon/service-icons/residense" transform="translate(1.000000, 24.000000)">
                        <rect id="Rectangle" x="0" y="0" width="16" height="16"></rect>
                        <path d="M2,7.40657493 C2,4.4166307 4.48721647,2 7.49572941,2 C10.5127706,2 13,4.4166307 13,7.40657493 C13,8.9132113 12.4545294,10.3119476 11.5567353,11.4975487 C10.5662824,12.8052849 9.34554118,13.9447359 7.97138235,14.8390717 C7.65691176,15.0457719 7.37311176,15.0613719 7.02790588,14.8390717 C5.64600824,13.9447359 4.42523471,12.8052849 3.44326471,11.4975487 C2.54481059,10.3119476 2,8.9132113 2,7.40657493 Z M5.68450176,7.57492508 C5.68450176,8.576511 6.49815882,9.36431171 7.49572941,9.36431171 C8.49401176,9.36431171 9.31551765,8.576511 9.31551765,7.57492508 C9.31551765,6.58107418 8.49401176,5.75494292 7.49572941,5.75494292 C6.49815882,5.75494292 5.68450176,6.58107418 5.68450176,7.57492508 Z" id="Shape" fill="#4D2C3E"></path>
                    </g>
                </g>
            </g>
        </g>
    </g>
</svg>