<?xml version="1.0" encoding="UTF-8"?>
<svg width="24px" height="24px" viewBox="0 0 24 24" version="1.1" xmlns="http://www.w3.org/2000/svg" xmlns:xlink="http://www.w3.org/1999/xlink">
    <title>1D3D8F8B-05EC-4B1F-8F64-D1A94D1EADB4</title>
    <g id="Page-1" stroke="none" stroke-width="1" fill="none" fill-rule="evenodd">
        <g id="Split---Registration-2" transform="translate(-176.000000, -396.000000)">
            <g id="Registration" transform="translate(24.000000, 323.000000)">
                <g id="Upload-ID" transform="translate(32.000000, 33.000000)">
                    <g id="icon/service-icons/img" transform="translate(120.000000, 40.000000)">
                        <rect id="Rectangle" x="0" y="0" width="24" height="24"></rect>
                        <g id="Image-2" transform="translate(2.000000, 2.000000)" stroke="#E1D7DC" stroke-linecap="round" stroke-linejoin="round" stroke-width="1.5">
                            <path d="M14.3034,0.75031 L5.65443,0.75031 C2.63943,0.75031 0.75043,2.88431 0.75043,5.9043 L0.75043,14.0533 C0.75043,17.0733 2.63143,19.2073 5.65443,19.2073 L14.3024,19.2073 C17.3264,19.2073 19.2074,17.0733 19.2074,14.0533 L19.2074,5.9043 C19.2074,2.88431 17.3264,0.75031 14.3034,0.75031 Z" id="Path"></path>
                            <path d="M8.7033,6.78551 C8.7033,7.80451 7.87633,8.6315 6.85733,8.6315 C5.83933,8.6315 5.01233,7.80451 5.01233,6.78551 C5.01233,5.76651 5.83933,4.93951 6.85733,4.93951 C7.87633,4.93951 8.7033,5.76651 8.7033,6.78551 Z" id="Path"></path>
                            <path d="M19.2068,12.9505 C18.2128,12.0855 17.3478,11.0445 16.2078,10.3575 C15.0658,9.6705 13.8388,10.0945 13.0468,11.1195 C12.2818,12.1105 11.8038,13.4435 10.6488,14.0685 C9.2258,14.8395 8.3898,13.5965 7.20276,13.0985 C5.87776,12.5435 4.87176,13.5415 4.09776,14.5005 C3.32276,15.4605 2.53776,16.4105 1.74976,17.3605" id="Path"></path>
                        </g>
                    </g>
                </g>
            </g>
        </g>
    </g>
</svg>