<?xml version="1.0" encoding="UTF-8"?>
<svg width="16px" height="16px" viewBox="0 0 16 16" version="1.1" xmlns="http://www.w3.org/2000/svg" xmlns:xlink="http://www.w3.org/1999/xlink">
    <title>A3E8FBC7-1F8A-4EC9-9DAA-E9F9443FBDEC</title>
    <g id="Page-1" stroke="none" stroke-width="1" fill="none" fill-rule="evenodd">
        <g id="Split---Registration" transform="translate(-57.000000, -383.000000)">
            <g id="Registration" transform="translate(24.000000, 326.000000)">
                <g id="First-name" transform="translate(32.000000, 33.000000)">
                    <g id="icon/service-icons/user" transform="translate(1.000000, 24.000000)">
                        <rect id="Rectangle" x="0" y="0" width="16" height="16"></rect>
                        <path d="M11.86267,4.52737 C11.86267,6.48539 10.29272,8.0554 8.33332,8.0554 C6.37458,8.0554 4.80399,6.48539 4.80399,4.52737 C4.80399,2.56935 6.37458,1 8.33332,1 C10.29272,1 11.86267,2.56935 11.86267,4.52737 Z M8.33333,14.33337 C5.44158,14.33337 3,13.86337 3,12.04997 C3,10.23597 5.45692,9.78267 8.33333,9.78267 C11.22577,9.78267 13.66667,10.25267 13.66667,12.06597 C13.66667,13.87997 11.20977,14.33337 8.33333,14.33337 Z" id="Shape" fill="#4D2C3E"></path>
                    </g>
                </g>
            </g>
        </g>
    </g>
</svg>